<svg width="16" height="16" viewBox="0 0 16 16" fill="none" xmlns="http://www.w3.org/2000/svg">
<path fill-rule="evenodd" clip-rule="evenodd" d="M2.27746 8.34965H0.388012C0.168701 8.34965 0 8.17482 0 7.96503C0 7.84266 0.0506102 7.73776 0.134961 7.65035L7.70963 0.604895C7.86146 0.465035 8.08077 0.465035 8.21573 0.604895L15.8747 7.66783C16.0266 7.80769 16.0434 8.05245 15.9085 8.22727C15.841 8.31468 15.7229 8.36713 15.6217 8.36713H13.6985V15.1154C13.6985 15.3252 13.5298 15.5 13.3274 15.5H10.122C9.90274 15.5 9.73404 15.3252 9.73404 15.1154V10.7622H6.0901V15.0979C6.0901 15.3077 5.9214 15.4825 5.70209 15.4825H2.66547C2.44616 15.4825 2.27746 15.3077 2.27746 15.0979V8.34965Z" fill="black"/>
</svg>
