<svg class="horizontal-bars" width="1728" height="145" viewBox="0 0 1728 145" fill="none" xmlns="http://www.w3.org/2000/svg">
<g opacity="0.75" clip-path="url(#clip0_228_13425)">
<path d="M1797 146.913L1797 140.827L-34 140.827L-34 146.913L1797 146.913Z" fill="#46D1EE"/>
<path d="M1797 136.448L1797 130.769L-34 130.768L-34 136.448L1797 136.448Z" fill="#46D1EE"/>
<path d="M1797 125.982L1797 120.708L-34 120.708L-34 125.982L1797 125.982Z" fill="#46D1EE"/>
<path d="M1797 115.518L1797 110.649L-34 110.649L-34 115.518L1797 115.518Z" fill="#46D1EE"/>
<path d="M1797 105.054L1797 100.591L-34 100.591L-34 105.053L1797 105.054Z" fill="#46D1EE"/>
<path d="M1797 94.5892L1797 90.5322L-34 90.5321L-34 94.5891L1797 94.5892Z" fill="#46D1EE"/>
<path d="M1797 84.1239L1797 80.4727L-34 80.4726L-34 84.1239L1797 84.1239Z" fill="#46D1EE"/>
<path d="M1797 73.6587L1797 70.4131L-34 70.413L-34 73.6586L1797 73.6587Z" fill="#46D1EE"/>
<path d="M1797 63.1944L1797 60.3545L-34 60.3544L-34 63.1943L1797 63.1944Z" fill="#46D1EE"/>
<path d="M1797 52.7291L1797 50.2949L-34 50.2948L-34 52.729L1797 52.7291Z" fill="#46D1EE"/>
<path d="M1797 42.2648L1797 40.2363L-34 40.2362L-34 42.2647L1797 42.2648Z" fill="#46D1EE"/>
<path d="M1797 31.8005L1797 30.1777L-34 30.1777L-34 31.8005L1797 31.8005Z" fill="#46D1EE"/>
<path d="M1797 21.3353L1797 20.1182L-34 20.1181L-34 21.3352L1797 21.3353Z" fill="#46D1EE"/>
<path d="M1797 10.87L1797 10.0586L-34 10.0585L-34 10.8699L1797 10.87Z" fill="#46D1EE"/>
<path d="M1797 0.405699L1797 0L-34 -8.00356e-05L-34 0.405619L1797 0.405699Z" fill="#46D1EE"/>
</g>
<defs>
<clipPath id="clip0_228_13425">
<rect width="220" height="1831" fill="white" transform="translate(1797) rotate(90)"/>
</clipPath>
</defs>
</svg>
