<svg class="horizontal-bars-small" width="401" height="144" viewBox="0 0 401 144" fill="none" xmlns="http://www.w3.org/2000/svg">
<g opacity="0.5">
<mask id="mask0_763_2187" style="mask-type:alpha" maskUnits="userSpaceOnUse" x="0" y="0" width="401" height="144">
<g clip-path="url(#clip0_763_2187)">
<path d="M401 144L401 138.375L0.219391 138.374L0.219391 144L401 144Z" fill="#1ADDAC"/>
<path d="M401 137.126L401 131.815L0.219391 131.815L0.219391 137.126L401 137.126Z" fill="#1ADDAC"/>
<path d="M401 130.409L401 125.098L0.219391 125.098L0.219391 130.409L401 130.409Z" fill="#1ADDAC"/>
<path d="M401 123.56L401 118.514L0.219391 118.514L0.219391 123.56L401 123.56Z" fill="#1ADDAC"/>
<path d="M401 116.71L401 111.93L0.219391 111.93L0.219391 116.71L401 116.71Z" fill="#1ADDAC"/>
<path d="M401 109.86L401 105.346L0.219391 105.346L0.219391 109.86L401 109.86Z" fill="#1ADDAC"/>
<path d="M401 103.01L401 98.7617L0.219391 98.7617L0.219391 103.01L401 103.01Z" fill="#1ADDAC"/>
<path d="M401 96.161L401 92.1777L0.219391 92.1777L0.219391 96.1609L401 96.161Z" fill="#1ADDAC"/>
<path d="M401 89.3114L401 85.5938L0.219391 85.5937L0.219391 89.3114L401 89.3114Z" fill="#1ADDAC"/>
<path d="M401 82.4614L401 79.0093L0.219391 79.0093L0.219391 82.4614L401 82.4614Z" fill="#1ADDAC"/>
<path d="M401 75.6119L401 72.4253L0.219391 72.4253L0.219391 75.6119L401 75.6119Z" fill="#1ADDAC"/>
<path d="M401 68.7623L401 65.8413L0.219391 65.8413L0.219391 68.7623L401 68.7623Z" fill="#1ADDAC"/>
<path d="M401 61.9128L401 59.2573L0.219391 59.2573L0.219391 61.9128L401 61.9128Z" fill="#1ADDAC"/>
<path d="M401 55.0633L401 52.6733L0.219391 52.6733L0.219391 55.0633L401 55.0633Z" fill="#1ADDAC"/>
<path d="M401 48.2128L401 46.0884L0.219391 46.0884L0.219391 48.2127L401 48.2128Z" fill="#1ADDAC"/>
<path d="M401 41.3632L401 39.5044L0.219391 39.5044L0.219391 41.3632L401 41.3632Z" fill="#1ADDAC"/>
<path d="M401 34.5137L401 32.9204L0.219391 32.9204L0.219391 34.5137L401 34.5137Z" fill="#1ADDAC"/>
<path d="M401 27.6642L401 26.3364L0.219391 26.3364L0.219391 27.6642L401 27.6642Z" fill="#1ADDAC"/>
<path d="M401 20.8146L401 19.7524L0.219391 19.7524L0.219391 20.8146L401 20.8146Z" fill="#1ADDAC"/>
<path d="M401 13.9646L401 13.168L0.219391 13.168L0.219391 13.9646L401 13.9646Z" fill="#1ADDAC"/>
<path d="M401 7.11508L401 6.58398L0.219391 6.58397L0.219391 7.11506L401 7.11508Z" fill="#1ADDAC"/>
<path d="M401 0.265548L401 0L0.219391 -1.75187e-05L0.219391 0.265531L401 0.265548Z" fill="#1ADDAC"/>
</g>
</mask>
<g mask="url(#mask0_763_2187)">
<path d="M401 -10.4297L401 144L0.219384 144L0.219391 -10.4297L401 -10.4297Z" fill="#1BDDAE"/>
</g>
</g>
<defs>
<clipPath id="clip0_763_2187">
<rect width="144" height="400.781" fill="white" transform="translate(401) rotate(90)"/>
</clipPath>
</defs>
</svg>
