<svg width="169" height="55" viewBox="0 0 169 55" fill="none" xmlns="http://www.w3.org/2000/svg">
<g clip-path="url(#clip0_1099_3715)">
<path d="M118.586 22.4231H116.837V21.4074H119.68V24.6993C119.249 24.6189 118.851 24.5448 118.217 24.4262C117.305 25.0255 116.015 25.0008 115.049 24.1766C114.048 23.3227 113.71 21.5087 114.292 20.1124C114.804 18.8817 115.946 18.2503 117.382 18.4035C118.744 18.5493 119.413 19.1535 119.69 20.5387C119.137 20.5931 118.64 20.7834 118.27 20.0593C117.955 19.4402 116.962 19.3018 116.248 19.6206C115.524 19.9431 115.108 20.8402 115.203 21.8794C115.29 22.8321 115.76 23.4463 116.561 23.6588C117.493 23.906 118.237 23.4957 118.586 22.4231Z" fill="white"/>
<path d="M48.9478 27.7024C50.0104 27.779 51.0398 27.7568 52.0283 27.9471C53.3542 28.2041 54.1141 29.3842 54.0869 30.8707C54.061 32.33 53.1441 33.5793 51.7688 33.8215C50.8569 33.9821 49.9103 33.9438 48.9478 33.9957V27.7012V27.7024ZM50.1637 28.943V32.7971C51.8677 32.9553 52.9081 32.1719 52.9155 30.7792C52.9229 29.4287 52.0135 28.8034 50.1637 28.943Z" fill="white"/>
<path d="M54.3219 20.5334C53.6904 20.6631 53.2172 20.6792 52.8341 20.0119C52.6549 19.6993 52.0396 19.5238 51.6071 19.4917C50.8892 19.4398 50.3257 19.8229 50.0464 20.5087C49.6757 21.4181 49.7363 22.3066 50.3603 23.0888C50.8261 23.6732 51.5132 23.8425 52.1619 23.5682C52.6216 23.3742 52.9651 22.9071 53.5026 22.4376H54.3219C54.2107 23.934 53.2135 24.8138 51.6639 24.8249C49.9723 24.8373 48.7539 23.6226 48.6563 21.8247C48.5537 19.9403 49.5287 18.6243 51.1808 18.4142C52.8971 18.1955 53.9932 18.9171 54.3231 20.5334H54.3219Z" fill="white"/>
<path d="M70.7736 29.7187V27.749H71.8202V34.0275C71.4421 33.9126 71.0973 33.7903 70.7439 33.7099C70.6241 33.6827 70.4696 33.7371 70.3498 33.794C69.0486 34.4217 67.824 33.8286 67.5028 32.4088C67.0727 30.5071 68.1984 29.0428 69.8357 29.3851C70.1236 29.4456 70.3955 29.5815 70.7724 29.7175L70.7736 29.7187ZM70.7711 31.676C70.7785 30.8975 70.3708 30.3897 69.7183 30.3662C69.0251 30.3402 68.5617 30.8592 68.5605 31.6649C68.558 32.3865 69.0288 32.9809 69.6244 33.0118C70.2645 33.0451 70.7637 32.4631 70.7711 31.676Z" fill="white"/>
<path d="M73.8297 24.7548C73.3972 24.635 73.0797 24.5225 72.7522 24.4657C72.6027 24.4397 72.4235 24.4978 72.2777 24.5621C71.0618 25.1045 69.8076 24.4892 69.5259 23.1892C69.4616 22.8951 69.4233 22.5862 69.4332 22.286C69.4974 20.383 70.7825 19.6218 72.7399 20.4151V18.4727H73.831V24.7536L73.8297 24.7548ZM71.6302 23.7193C72.2604 23.7453 72.7473 23.2263 72.7942 22.4763C72.8424 21.6953 72.3914 21.1009 71.7303 21.0725C71.0902 21.0453 70.6046 21.5532 70.5589 22.2971C70.5132 23.0459 71.0013 23.6934 71.6302 23.7193Z" fill="white"/>
<path d="M93.5647 24.6229H92.4563C92.4563 23.7827 92.4539 22.9671 92.4563 22.1504C92.4588 21.6227 92.4156 21.1149 91.7261 21.0778C91.0575 21.0407 90.7585 21.4868 90.7202 22.054C90.6646 22.8757 90.7054 23.7048 90.7054 24.597H89.6328V18.4668H90.6708V20.5267C90.9389 20.3784 91.0946 20.2746 91.2639 20.2017C92.5045 19.6703 93.5215 20.2956 93.5598 21.6351C93.587 22.5964 93.5647 23.5603 93.5647 24.6242V24.6229Z" fill="white"/>
<path d="M114.312 9.26465H118.388V10.2878H115.513V11.7002H118.257V12.8135H115.476V15.3195H114.313V9.26465H114.312Z" fill="white"/>
<path d="M138.389 21.681C138.689 20.3811 139.374 19.956 140.727 20.0747C141.665 20.1562 142.108 20.6752 142.131 21.7663C142.148 22.6202 142.131 23.4753 142.126 24.3303C142.126 24.4082 142.086 24.4848 142.031 24.6862C141.652 24.6244 141.278 24.5626 140.771 24.4786C140.423 24.5429 139.889 24.7418 139.369 24.7097C138.698 24.6689 138.286 24.2117 138.22 23.5098C138.154 22.8191 138.416 22.31 139.098 22.1074C139.491 21.9912 139.93 22.0184 140.31 21.8788C140.581 21.7799 140.789 21.5105 141.023 21.3165C140.689 21.2028 140.356 21.02 140.018 21.0051C139.848 20.9977 139.691 21.3659 139.484 21.4487C139.175 21.5723 138.825 21.5933 138.388 21.6798L138.389 21.681ZM141.054 22.5917C140.575 22.6659 140.156 22.6708 139.789 22.8129C139.604 22.8846 139.439 23.1923 139.415 23.411C139.403 23.5123 139.745 23.7496 139.934 23.7582C140.626 23.7879 140.964 23.3813 141.054 22.593V22.5917Z" fill="white"/>
<path d="M98.2072 24.8295C97.7142 24.6355 97.4052 24.4687 97.0753 24.4032C96.9073 24.3698 96.7034 24.5799 96.5156 24.5799C95.962 24.5799 95.3083 24.6948 94.8869 24.4439C94.5508 24.2438 94.3618 23.5753 94.3482 23.1082C94.3272 22.3754 94.9487 22.1221 95.5764 21.9961C95.9002 21.9306 96.2499 21.9639 96.5563 21.8614C96.7738 21.7885 96.9406 21.5623 97.1297 21.4042C96.9011 21.2485 96.6898 21.0125 96.4389 20.9618C96.2375 20.9198 95.9805 21.0817 95.7643 21.1867C95.3936 21.3659 95.0364 21.571 94.5558 21.8292C94.6287 20.596 95.2008 20.1042 96.3092 20.0733C97.5288 20.0388 98.138 20.4379 98.1936 21.4264C98.2517 22.4644 98.206 23.5085 98.206 24.8307L98.2072 24.8295ZM97.142 22.5867C96.6552 22.6658 96.2363 22.6745 95.8705 22.819C95.6876 22.8919 95.527 23.2033 95.506 23.422C95.4961 23.5209 95.8446 23.752 96.0349 23.7581C96.7256 23.7791 97.0654 23.3751 97.1433 22.5867H97.142Z" fill="white"/>
<path d="M59.1077 22.7291H55.8479C56.2223 23.1628 56.4065 23.5743 56.6721 23.6361C57.0515 23.7238 57.5025 23.5941 57.9016 23.4829C58.2686 23.3803 58.6084 23.1789 59.078 22.9676C58.8964 24.2923 57.9498 24.915 56.7389 24.7334C55.5403 24.5542 54.7667 23.4137 54.9409 22.0816C55.1251 20.6717 56.0654 19.9291 57.4741 20.0823C58.6418 20.2083 59.2918 21.2315 59.1089 22.7291H59.1077ZM57.998 21.8876C58.0437 21.8073 58.0895 21.7258 58.1352 21.6454C57.8127 21.4415 57.5099 21.1227 57.1615 21.0622C56.6252 20.9695 56.2298 21.2673 56.0914 21.8876H57.9968H57.998Z" fill="white"/>
<path d="M139.118 13.4772H136.104C136.37 14.5077 137.23 14.787 137.974 14.184C138.252 13.9591 138.635 13.8615 139.054 13.6662C138.994 14.918 138.161 15.5408 136.925 15.4567C135.685 15.3715 134.839 14.3125 134.936 12.9693C135.044 11.4816 136.042 10.6252 137.474 10.7896C138.658 10.9255 139.298 11.9202 139.119 13.4784L139.118 13.4772ZM136.051 12.3045C136.098 12.3935 136.146 12.4837 136.193 12.5727H138.019C138.06 12.4862 138.101 12.3984 138.142 12.3119C137.811 12.1254 137.476 11.7843 137.148 11.7917C136.779 11.7991 136.415 12.1204 136.05 12.3045H136.051Z" fill="white"/>
<path d="M134.5 22.7369H131.48C131.433 22.8012 131.386 22.8667 131.339 22.9309C131.6 23.1929 131.824 23.6006 132.132 23.6785C132.476 23.7662 132.908 23.5858 133.283 23.4684C133.653 23.3535 134.001 23.1706 134.483 22.963C134.21 24.3198 133.304 24.9105 132.098 24.7325C130.928 24.5595 130.147 23.445 130.29 22.1561C130.451 20.7215 131.349 19.964 132.76 20.0728C133.944 20.1642 134.582 21.0947 134.499 22.7357L134.5 22.7369ZM133.344 21.8979C133.389 21.7904 133.435 21.6829 133.482 21.5754C133.116 21.3974 132.763 21.1083 132.384 21.0675C131.896 21.0168 131.527 21.3072 131.494 21.8979H133.344Z" fill="white"/>
<path d="M85.4942 22.7543H82.5583C82.5125 22.8186 82.4656 22.8841 82.4199 22.9483C82.6868 23.2053 82.9178 23.6045 83.2292 23.6798C83.574 23.7626 84.0003 23.5773 84.3735 23.4562C84.7207 23.3425 85.0457 23.1596 85.472 22.9656C85.3966 24.226 84.5242 24.8525 83.2935 24.7438C82.0442 24.6338 81.2299 23.5167 81.3708 22.1105C81.5092 20.7315 82.4866 19.9407 83.8817 20.0778C85.0655 20.194 85.7031 21.2048 85.4942 22.7556V22.7543ZM84.4291 21.9017C84.4736 21.7954 84.5181 21.6892 84.5625 21.5829C84.1955 21.4 83.8397 21.101 83.4603 21.0652C82.9784 21.0207 82.6015 21.316 82.562 21.9005H84.4303L84.4291 21.9017Z" fill="white"/>
<path d="M68.8371 22.7545H65.8975C65.8493 22.815 65.8011 22.8743 65.7529 22.9349C65.9802 23.187 66.1705 23.5824 66.4461 23.654C66.797 23.7455 67.2295 23.6194 67.6027 23.507C67.9919 23.3896 68.3528 23.1771 68.868 22.9411C68.5752 24.3423 67.6138 24.9453 66.4016 24.7229C65.1894 24.4992 64.5086 23.3822 64.7013 21.9315C64.8694 20.6686 65.8307 19.9507 67.1813 20.0805C68.3577 20.1941 68.9619 21.1283 68.8371 22.7545ZM65.7788 21.5509L65.9098 21.8883H67.6855C67.7324 21.8166 67.7782 21.7437 67.8251 21.672C67.5421 21.4632 67.2567 21.0814 66.9787 21.0875C66.5758 21.095 66.178 21.3829 65.7788 21.5522V21.5509Z" fill="white"/>
<path d="M124.688 22.7633H121.754C121.949 23.7481 122.819 24.0546 123.545 23.5133C123.852 23.2835 124.248 23.1686 124.71 22.9511C124.56 24.2609 123.658 24.8849 122.425 24.7391C121.156 24.5896 120.411 23.4652 120.594 21.9774C120.758 20.6404 121.804 19.8842 123.199 20.093C124.319 20.261 124.908 21.2718 124.688 22.7633ZM121.771 21.8501H123.605L123.724 21.5634C123.385 21.3855 123.057 21.0877 122.704 21.0581C122.229 21.0173 121.801 21.2508 121.771 21.8501Z" fill="white"/>
<path d="M80.6889 24.7674C80.2168 24.6351 79.8993 24.5054 79.5731 24.4696C79.3716 24.4473 79.1517 24.6215 78.9453 24.6117C78.3942 24.5857 77.7554 24.6574 77.3254 24.4004C77.0127 24.2138 76.8002 23.5341 76.8719 23.1313C76.9398 22.7433 77.3711 22.3219 77.7517 22.1144C78.1397 21.9043 78.6698 21.9735 79.1183 21.8499C79.3148 21.7955 79.4618 21.5682 79.6311 21.4187C79.4606 21.2642 79.3024 20.9998 79.1171 20.98C78.844 20.9516 78.5363 21.0603 78.2719 21.1765C77.8975 21.3396 77.5502 21.5632 77.077 21.824C77.0992 20.6241 77.659 20.12 78.7291 20.073C79.9611 20.0199 80.6271 20.4202 80.6753 21.3544C80.7309 22.4208 80.6876 23.4921 80.6876 24.7674H80.6889ZM79.6212 22.5975C79.1517 22.6667 78.7501 22.6655 78.4029 22.8014C78.2076 22.878 78.1026 23.182 77.9568 23.3846C78.1669 23.5144 78.3757 23.7529 78.587 23.7553C79.2592 23.7627 79.5545 23.329 79.6212 22.5987V22.5975Z" fill="white"/>
<path d="M66.7292 31.6923C66.7255 33.143 65.8803 34.045 64.5248 34.0426C63.1915 34.0401 62.2944 33.0862 62.3043 31.6824C62.3142 30.2639 63.2076 29.3173 64.5334 29.3223C65.8742 29.3272 66.733 30.2528 66.7292 31.6923ZM65.5751 31.6676C65.5726 30.8595 65.1599 30.3751 64.4902 30.3924C63.8835 30.4084 63.4757 30.9151 63.4671 31.6614C63.4584 32.4226 63.9107 32.9922 64.5285 32.9997C65.1562 33.0071 65.5776 32.4708 65.5751 31.6688V31.6676Z" fill="white"/>
<path d="M77.0866 31.6837C77.0952 33.0837 76.1969 34.0376 74.8624 34.0413C73.5093 34.0463 72.6653 33.143 72.6616 31.6898C72.6592 30.2515 73.5179 29.326 74.8587 29.3223C76.1808 29.3186 77.0767 30.2688 77.0866 31.6837ZM74.829 30.3936C74.1815 30.4035 73.7984 30.9138 73.8195 31.7368C73.8392 32.4943 74.2433 32.9898 74.8512 33.0034C75.4728 33.017 75.9238 32.4609 75.9238 31.6812C75.9238 30.9002 75.4839 30.3825 74.8302 30.3924L74.829 30.3936Z" fill="white"/>
<path d="M130.322 37.9333C129.829 39.5793 129.409 41.0324 128.948 42.472C128.863 42.7389 128.613 42.9527 128.44 43.1899C128.279 42.9378 128.045 42.7055 127.971 42.4312C127.497 40.6815 127.06 38.9219 126.611 37.166L126.857 37.0078C126.993 37.2179 127.193 37.4106 127.255 37.6392C127.657 39.1554 128.027 40.679 128.471 42.451C128.965 40.7408 129.374 39.2703 129.825 37.8135C129.911 37.5379 130.155 37.3118 130.327 37.0634C130.498 37.3118 130.742 37.5367 130.825 37.811C131.275 39.2802 131.684 40.7606 132.145 42.3707C132.665 40.5147 133.143 38.8033 133.634 37.0943C133.641 37.0696 133.786 37.0832 133.995 37.0721C133.944 37.3612 133.917 37.6158 133.854 37.8629C133.467 39.3865 133.085 40.9101 132.667 42.425C132.591 42.7018 132.357 42.9354 132.195 43.1899C132.019 42.9527 131.763 42.7401 131.679 42.4745C131.223 41.0337 130.81 39.5805 130.323 37.9333H130.322Z" fill="white"/>
<path d="M152.558 22.3744C152.564 23.8448 151.751 24.7333 150.389 24.7469C149.034 24.7592 148.155 23.8535 148.142 22.43C148.128 20.9966 148.981 20.0797 150.334 20.0723C151.733 20.0649 152.552 20.9126 152.558 22.3744ZM151.408 22.3657C151.395 21.5848 150.938 21.0633 150.299 21.0992C149.694 21.1325 149.3 21.6453 149.298 22.3979C149.298 23.1677 149.753 23.725 150.378 23.7163C151.006 23.7077 151.42 23.164 151.408 22.3657Z" fill="white"/>
<path d="M153.396 20.0636C153.79 20.1563 154.111 20.249 154.439 20.3021C154.592 20.3268 154.775 20.3157 154.916 20.2552C156.313 19.6596 157.297 20.2552 157.346 21.7676C157.377 22.7006 157.353 23.6335 157.353 24.6146H156.19C156.19 23.7991 156.185 22.9848 156.191 22.1717C156.195 21.654 156.206 21.1226 155.497 21.0818C154.78 21.0398 154.508 21.502 154.485 22.1235C154.455 22.9205 154.477 23.7188 154.477 24.5899H153.394V20.0636H153.396Z" fill="white"/>
<path d="M60.0122 20.0703C60.4595 20.163 60.8339 20.2408 61.2701 20.3323C61.6297 20.2606 62.0993 20.1086 62.575 20.0876C63.3152 20.0543 63.8317 20.462 63.8749 21.1948C63.9417 22.3131 63.8922 23.4388 63.8922 24.6127H62.8469C62.8469 23.807 62.8469 22.9927 62.8469 22.1796C62.8469 21.6161 62.7752 21.0823 62.0424 21.0811C61.3233 21.0786 61.1045 21.589 61.0823 22.1895C61.0526 22.9816 61.0749 23.7773 61.0749 24.609H60.0122V20.0703Z" fill="white"/>
<path d="M102.985 24.7387C102.541 24.6225 102.18 24.5299 101.668 24.3964C100.298 25.2292 99.0499 24.5607 99.0017 22.7381C98.9794 21.9152 98.998 21.0897 98.998 20.1716C99.3625 20.1531 99.6776 20.1358 100.135 20.1123C100.135 20.9377 100.135 21.7236 100.135 22.5095C100.135 23.0532 100.151 23.6439 100.858 23.6921C101.589 23.7415 101.876 23.1978 101.913 22.5688C101.959 21.8015 101.924 21.0304 101.924 20.1939H102.985V24.7374V24.7387Z" fill="white"/>
<path d="M129.576 24.6178H128.439C128.439 23.7331 128.434 22.8879 128.44 22.0427C128.444 21.52 128.327 21.0887 127.693 21.0776C127.079 21.0677 126.769 21.4434 126.743 22.0044C126.704 22.852 126.733 23.7022 126.733 24.6067H125.639V20.031C126.052 20.1508 126.386 20.2682 126.729 20.3362C126.867 20.3634 127.04 20.3102 127.174 20.246C128.458 19.6294 129.546 20.2769 129.574 21.6954C129.592 22.6543 129.577 23.6132 129.577 24.6166L129.576 24.6178Z" fill="white"/>
<path d="M127.081 10.8652H128.218C128.218 11.7141 128.226 12.5556 128.216 13.3971C128.209 13.9038 128.268 14.3857 128.904 14.4116C129.544 14.4376 129.878 14.0249 129.907 13.433C129.949 12.6112 129.917 11.7858 129.917 10.8974H131.009V15.3878C130.671 15.3421 130.362 15.2976 130.051 15.2618C129.878 15.242 129.679 15.1765 129.533 15.2346C128.143 15.7944 127.092 15.1061 127.081 13.6023C127.074 12.7212 127.08 11.8414 127.08 10.8652H127.081Z" fill="white"/>
<path d="M158.021 22.9198C158.555 23.1657 158.945 23.3486 159.338 23.524C159.559 23.6229 159.797 23.8082 160.006 23.7823C160.291 23.7465 160.557 23.5475 160.831 23.419C160.609 23.2584 160.407 23.0421 160.159 22.9507C159.774 22.8086 159.341 22.7962 158.959 22.6479C158.162 22.339 157.901 21.4333 158.368 20.7265C158.75 20.1469 159.71 19.8714 160.644 20.1222C161.339 20.3088 161.807 20.7314 161.855 21.762C161.36 21.5494 160.983 21.3727 160.596 21.2244C160.348 21.1293 160.076 20.9983 159.831 21.0243C159.643 21.0453 159.479 21.2862 159.304 21.4296C159.448 21.5704 159.569 21.7867 159.741 21.8373C160.162 21.9634 160.615 21.9844 161.04 22.1018C161.941 22.3501 162.267 23.2114 161.781 23.9948C161.407 24.5991 160.392 24.9278 159.452 24.7053C158.672 24.5212 158.091 24.1159 158.025 22.9185L158.021 22.9198Z" fill="white"/>
<path d="M121.756 15.0193C120.162 15.9399 118.953 15.2591 118.933 13.4228C118.924 12.5974 118.932 11.772 118.932 10.8897H120.07C120.07 11.6978 120.07 12.5171 120.07 13.3364C120.07 13.8628 120.123 14.3916 120.806 14.4102C121.444 14.4275 121.77 14.011 121.795 13.4117C121.828 12.5888 121.803 11.7646 121.803 10.8749C122.214 10.8551 122.506 10.8415 122.877 10.8242V15.3938C122.5 15.3344 122.152 15.2801 121.803 15.2257C121.789 15.1565 121.772 15.0873 121.758 15.0169L121.756 15.0193Z" fill="white"/>
<path d="M55.019 35.3301V34.4997C56.2534 34.176 56.293 34.0956 55.8209 32.8834C55.3823 31.759 54.9424 30.6345 54.5 29.5026C55.3328 29.2184 55.7962 29.4137 55.989 30.2589C56.1274 30.8668 56.4067 31.4414 56.7032 32.2532C56.9973 31.4587 57.2766 30.8718 57.4261 30.2552C57.6164 29.473 58.0377 29.2184 58.9015 29.4779C58.2145 31.2622 57.5756 33.0651 56.8181 34.816C56.5006 35.5488 55.7209 35.3919 55.0177 35.3326L55.019 35.3301Z" fill="white"/>
<path d="M60.0479 33.9005C60.0479 32.9601 60.0837 32.0766 60.0293 31.1968C60.0083 30.8681 59.776 30.553 59.6401 30.2318C59.561 30.2528 59.4819 30.2738 59.4028 30.2948V29.5571C59.4646 29.583 59.5252 29.609 59.5869 29.6349C59.7501 29.3198 59.9737 29.0208 60.0627 28.6859C60.2925 27.8234 60.767 27.5886 62.0793 27.7987V28.4969C61.7185 28.7292 61.4145 28.9244 61.1105 29.1197C61.1488 29.1938 61.1859 29.2667 61.2242 29.3408C61.4615 29.3754 61.7 29.4088 61.973 29.4483V30.3281C61.7543 30.3776 61.5233 30.4307 61.2044 30.5036V33.9017H60.0479V33.9005Z" fill="white"/>
<path d="M124.254 10.759C124.275 10.4303 124.292 10.1572 124.313 9.84214C124.659 9.74823 124.998 9.65555 125.381 9.55176C125.406 9.99042 125.428 10.3698 125.451 10.785C125.715 10.8146 125.953 10.843 126.285 10.8801C126.298 11.1544 126.311 11.4399 126.326 11.7661C126.004 11.8106 125.743 11.8452 125.419 11.8897C125.419 12.4161 125.443 12.9091 125.413 13.3997C125.374 14.0509 125.486 14.534 126.36 14.3573V15.2828C124.767 15.5448 124.296 15.163 124.282 13.6122C124.277 13.0623 124.282 12.5124 124.282 11.923C124.011 11.8625 123.779 11.8118 123.501 11.75V10.9184C123.729 10.8702 123.962 10.8208 124.255 10.759H124.254Z" fill="white"/>
<path d="M128.692 30.0641C129.219 29.8577 129.672 29.5772 130.154 29.513C131.036 29.3956 131.575 29.9109 131.594 30.8018C131.615 31.8385 131.599 32.8753 131.599 33.912C131.507 33.9305 131.416 33.9491 131.323 33.9676C131.249 33.7662 131.118 33.5685 131.111 33.3646C131.085 32.6479 131.087 31.93 131.103 31.212C131.117 30.5658 130.959 30.0406 130.223 29.9418C129.589 29.8553 128.969 30.4163 128.915 31.1601C128.863 31.8744 128.904 32.5948 128.875 33.3114C128.867 33.5302 128.764 33.7452 128.705 33.9614C128.598 33.9503 128.491 33.9392 128.385 33.9281C128.385 33.0977 128.385 32.2661 128.385 31.4357C128.383 30.3582 128.094 29.9146 127.406 29.9282C126.682 29.943 126.189 30.5596 126.172 31.5086C126.157 32.3155 126.169 33.1224 126.169 34.0862C125.622 33.592 125.493 31.0156 125.743 29.7725C126.214 29.6921 126.619 29.6403 127.016 29.5513C127.733 29.3906 128.327 29.5711 128.692 30.0629V30.0641Z" fill="white"/>
<path d="M138.364 33.8884C138.364 32.9839 138.355 32.0806 138.367 31.1761C138.375 30.5188 138.173 30.0134 137.444 29.9367C136.837 29.8725 136.234 30.4211 136.178 31.1156C136.124 31.8026 136.16 32.4958 136.144 33.1853C136.137 33.4374 136.097 33.6883 136.071 33.9403C135.985 33.9502 135.901 33.9601 135.816 33.97C135.759 33.797 135.658 33.6252 135.654 33.451C135.636 32.7059 135.643 31.9596 135.646 31.2132C135.647 30.5793 135.497 30.0356 134.756 29.9417C134.164 29.8663 133.525 30.3952 133.454 31.0909C133.378 31.8298 133.426 32.5799 133.395 33.325C133.387 33.5412 133.293 33.755 133.239 33.9688C133.157 33.9564 133.077 33.9441 132.995 33.9317V29.487C133.201 29.6562 133.362 29.7872 133.541 29.9343C134.577 29.288 135.164 29.3214 135.99 30.0739C136.407 29.8836 136.781 29.6241 137.193 29.5401C138.223 29.3288 138.849 29.87 138.862 30.9191C138.873 31.7198 138.877 32.5218 138.856 33.3225C138.85 33.54 138.739 33.7538 138.676 33.97C138.572 33.9428 138.468 33.9156 138.364 33.8884Z" fill="white"/>
<path d="M87.9111 20.0728C88.1855 20.1123 88.4239 20.1482 88.697 20.1877V21.0589C88.4375 21.0996 88.2003 21.1367 87.9667 21.1738C87.5775 22.9457 87.7616 23.5389 88.807 23.7576V24.541C87.3155 24.9018 86.7261 24.4582 86.6915 22.9482C86.6792 22.3971 86.689 21.846 86.689 21.238C86.1058 21.1577 85.698 20.9291 86.007 20.1914C86.1973 20.1544 86.4246 20.1099 86.6903 20.058C86.5136 19.1621 86.9782 18.8853 87.7925 18.8927C87.8308 19.2783 87.8716 19.6737 87.9111 20.0728Z" fill="white"/>
<path d="M143.465 21.1941C143.132 21.1385 142.924 21.1027 142.678 21.0619V20.1895C142.935 20.1475 143.167 20.1092 143.44 20.0647C143.338 19.2516 143.659 18.8327 144.534 18.9019C144.557 19.2664 144.582 19.6433 144.609 20.0585C144.869 20.1005 145.106 20.1376 145.411 20.187C145.428 20.4391 145.447 20.7035 145.469 21.0223C145.175 21.0829 144.92 21.136 144.672 21.1879C144.33 23.0699 144.473 23.5085 145.533 23.7804V24.5675C143.923 24.8455 143.471 24.4736 143.465 22.8981C143.462 22.3495 143.465 21.8021 143.465 21.1929V21.1941Z" fill="white"/>
<path d="M62.37 43.2049C62.3256 43.001 62.2489 42.7983 62.244 42.5944C62.2279 41.8765 62.2304 41.1573 62.2391 40.4394C62.2465 39.8216 62.0685 39.3335 61.379 39.2322C60.7686 39.1432 60.1322 39.651 60.0655 40.3455C59.9963 41.0585 60.0396 41.7801 60.0161 42.498C60.0087 42.7328 59.9456 42.9664 59.9073 43.1999L59.6367 43.1789V38.8009C59.8184 38.9331 59.979 39.0505 60.1681 39.1877C61.2443 38.5562 61.8288 38.6069 62.5356 39.3471C63.0645 39.1432 63.5254 38.8602 64.016 38.7984C64.8995 38.686 65.4308 39.2074 65.4481 40.1008C65.4679 41.1264 65.4531 42.1545 65.4531 43.1801C65.3468 43.1937 65.2405 43.2061 65.1342 43.2197C65.0749 43.0516 64.9687 42.8861 64.9637 42.7168C64.944 41.9717 64.9464 41.2241 64.9551 40.4789C64.9637 39.8327 64.7994 39.3075 64.0543 39.226C63.4574 39.1617 62.8309 39.7042 62.763 40.3912C62.7012 41.0214 62.7445 41.6603 62.7346 42.2966C62.7296 42.5858 62.7099 42.8749 62.6963 43.1628C62.5875 43.1764 62.4775 43.1888 62.3688 43.2024L62.37 43.2049Z" fill="white"/>
<path d="M60.4606 10.8057C60.7312 11.0985 60.8659 11.2468 60.9981 11.3901C61.994 10.708 62.6576 10.7513 63.4645 11.5705C63.6881 11.4186 63.9007 11.2419 64.1416 11.1183C65.2772 10.5375 66.3127 11.1356 66.3374 12.3886C66.3535 13.1881 66.351 13.99 66.3325 14.7895C66.3276 14.986 66.2275 15.1812 66.1719 15.3764C66.0817 15.3653 65.9902 15.3542 65.9 15.3443C65.8802 14.9304 65.8506 14.5164 65.8432 14.1025C65.8333 13.5785 65.8518 13.0534 65.8358 12.5294C65.8172 11.961 65.6455 11.468 64.9807 11.4062C64.3122 11.3432 63.8327 11.6669 63.6919 12.3157C63.5819 12.8198 63.5918 13.3524 63.572 13.8739C63.5535 14.357 63.5683 14.8414 63.5683 15.3245L63.2878 15.3789C63.2149 15.1763 63.0864 14.9761 63.079 14.7722C63.053 14.0555 63.0542 13.3376 63.0728 12.6196C63.0888 11.9721 62.9616 11.447 62.1819 11.3976C61.5097 11.3555 60.9338 11.8819 60.893 12.6345C60.851 13.4055 60.8832 14.1791 60.8745 14.9526C60.8733 15.0799 60.8263 15.2071 60.7979 15.3468C60.3358 15.1169 60.2035 13.3709 60.4606 10.8081V10.8057Z" fill="white"/>
<path d="M54.2179 39.0256C53.8868 38.7686 53.6557 38.6698 53.5556 38.4968C53.0997 37.7084 52.3928 37.4168 51.5353 37.46C50.6295 37.5057 49.9474 37.9531 49.6089 38.8007C49.211 39.7979 49.2493 40.8087 49.767 41.7577C50.2057 42.5597 50.931 42.9057 51.8393 42.8624C52.6832 42.8216 53.3196 42.4831 53.6273 41.6403C53.694 41.4574 53.872 41.3141 54.0956 41.214C54.239 42.0654 53.8299 42.6276 53.1577 43.0218C51.6416 43.9103 49.6435 43.2862 49.1195 41.6206C48.8526 40.7716 48.8427 39.7559 49.0157 38.8749C49.2666 37.6021 50.4936 36.883 51.8492 36.9485C53.1256 37.0102 53.8967 37.617 54.2179 39.0256Z" fill="white"/>
<path d="M54.1499 13.2103C54.1734 14.6189 53.2886 15.432 51.8911 15.5284C50.2513 15.6421 49.0404 14.5658 48.8439 12.8173C48.619 10.8279 49.5458 9.36732 51.183 9.12883C52.7313 8.9027 53.8855 9.59345 54.1956 11.1541C53.8731 10.8959 53.6482 10.7945 53.5444 10.6203C53.0563 9.80598 52.3223 9.54773 51.4277 9.62063C50.5788 9.68859 49.9894 10.1347 49.6286 10.8921C49.0935 12.0141 49.3579 13.6625 50.192 14.4373C51.2621 15.4308 52.9711 15.1206 53.6062 13.8318C53.6989 13.6428 53.8892 13.5019 54.1499 13.209V13.2103Z" fill="white"/>
<path d="M119.577 32.014C119.583 32.7814 119.24 33.4536 118.536 33.6933C117.811 33.9404 116.954 34.1023 116.218 33.9627C114.544 33.6451 113.689 31.3604 114.408 29.45C114.991 27.9017 116.783 27.1949 118.321 27.914C118.984 28.223 119.446 28.7012 119.581 29.7008C119.268 29.4747 119.026 29.387 118.928 29.2164C118.456 28.3885 117.717 28.1068 116.831 28.181C115.896 28.2588 115.117 28.7395 114.958 29.6675C114.815 30.4991 114.841 31.4221 115.056 32.2352C115.292 33.1261 116.07 33.5636 117.036 33.5735C117.993 33.5821 118.693 33.2336 119.026 32.2822C119.083 32.1203 119.249 31.9955 119.364 31.8546C119.435 31.9078 119.506 31.9609 119.577 32.014Z" fill="white"/>
<path d="M96.5081 14.8621C95.4837 15.6233 94.489 15.6678 93.7452 14.977C92.984 14.269 92.8641 12.5563 93.5141 11.6679C94.1505 10.798 95.1155 10.7201 96.644 11.4726V9.17429C96.7231 9.15452 96.8034 9.13598 96.8825 9.11621C96.9591 9.29168 97.1013 9.46714 97.1025 9.64508C97.1198 11.3849 97.1185 13.1248 97.1025 14.8646C97.1013 15.0228 96.9703 15.1797 96.8986 15.3379C96.7775 15.192 96.6564 15.0462 96.5069 14.8646L96.5081 14.8621ZM93.6228 13.1532C93.6154 14.2418 94.2085 14.9758 95.0982 14.9783C96.004 14.9807 96.6107 14.2628 96.6132 13.1828C96.6156 12.1609 96.02 11.4269 95.1649 11.3997C94.2431 11.3689 93.6302 12.0658 93.6228 13.1544V13.1532Z" fill="white"/>
<path d="M91.7789 15.396C91.6541 15.2341 91.5306 15.0722 91.4045 14.9079C90.2455 15.653 89.2557 15.6456 88.5538 14.8671C87.8408 14.0763 87.7914 12.4674 88.4525 11.6222C89.0975 10.7992 90.1095 10.7214 91.4873 11.469C91.4873 10.7671 91.475 10.127 91.4984 9.48942C91.5034 9.37451 91.6578 9.26577 91.7431 9.15332C91.8284 9.23735 91.9878 9.32014 91.989 9.40416C92.0026 11.3751 92.0001 13.346 92.0001 15.3169L91.7777 15.396H91.7789ZM91.5071 13.1804C91.5071 12.1078 90.8868 11.3812 89.9847 11.3985C89.1222 11.4146 88.5328 12.1239 88.5192 13.1594C88.5056 14.2332 89.1037 14.9635 90.0057 14.9771C90.8954 14.9894 91.5071 14.2567 91.5059 13.1804H91.5071Z" fill="white"/>
<path d="M134.862 40.1013C134.956 39.0645 135.616 38.6716 136.656 38.7927C137.574 38.8989 137.955 39.3067 137.973 40.2631C137.992 41.2331 137.977 42.2044 137.977 43.1756C137.898 43.1929 137.819 43.2115 137.74 43.2288C137.6 43.0681 137.461 42.9087 137.453 42.9001C136.761 43.0533 136.161 43.2992 135.566 43.2881C134.893 43.2769 134.467 42.7889 134.441 42.0858C134.416 41.4173 134.785 40.9934 135.43 40.8476C135.886 40.7438 136.37 40.7426 136.812 40.6042C137.057 40.5276 137.43 40.2458 137.415 40.0901C137.388 39.8232 137.155 39.4735 136.912 39.3524C136.351 39.0744 135.785 39.1683 135.325 39.6478C135.176 39.8035 135.018 39.9517 134.863 40.1025L134.862 40.1013ZM137.337 40.9835C136.764 41.0663 136.237 41.1145 135.726 41.2257C135.248 41.3295 134.826 41.6508 135.045 42.1488C135.181 42.4577 135.663 42.7827 136.006 42.8012C136.905 42.8506 137.457 42.0623 137.337 40.9835Z" fill="white"/>
<path d="M75.9683 24.6233H74.9365V18.4609H75.9683V24.6233Z" fill="white"/>
<path d="M78.9268 33.9046H77.8975V27.7559H78.9268V33.9046Z" fill="white"/>
<path d="M165.696 31.8929H162.423C162.509 32.9705 162.949 33.613 163.744 33.5142C164.392 33.4338 164.997 32.9952 165.581 32.7332C165.509 33.5722 164.767 34.1209 163.683 34.0406C162.504 33.9541 161.773 32.9346 161.875 31.5185C161.968 30.231 162.834 29.4166 164.029 29.4933C165.2 29.5686 165.784 30.3632 165.696 31.8917V31.8929ZM165.162 31.3727C165.088 30.4361 164.678 29.9974 163.918 29.9826C163.101 29.9665 162.609 30.4299 162.48 31.3727H165.162Z" fill="white"/>
<path d="M144.605 41.9992C144.354 42.9803 143.481 43.5154 142.433 43.3004C141.238 43.0545 140.617 41.8855 140.901 40.4225C141.119 39.2955 142.076 38.6332 143.223 38.8136C144.288 38.9817 144.794 39.7923 144.642 41.1664H141.442C141.42 42.1549 141.91 42.8889 142.7 42.7962C143.351 42.7196 143.959 42.2834 144.604 41.9992H144.605ZM144.181 40.682C144.032 39.665 143.52 39.188 142.736 39.2597C141.961 39.3289 141.505 39.8405 141.485 40.682H144.181Z" fill="white"/>
<path d="M135.384 20.2503H137.849V21.0745C136.538 21.4069 136.426 21.5539 136.424 22.9477C136.424 23.4902 136.424 24.0339 136.424 24.6184H135.382V20.249L135.384 20.2503Z" fill="white"/>
<path d="M133.209 15.3157H132.072V10.96H134.601V11.7384C133.674 12.0712 133.21 12.7575 133.21 13.7971C133.21 14.2864 133.21 14.7757 133.21 15.3157H133.209Z" fill="white"/>
<path d="M107.121 24.6158H106.033V20.1525C106.867 20.1302 107.687 20.4305 108.536 19.9795V21.0669C107.205 21.4191 107.123 21.5315 107.121 22.9562C107.121 23.4789 107.121 24.0016 107.121 24.6158Z" fill="white"/>
<path d="M59.2967 13.1728C59.314 14.5543 58.5059 15.4613 57.2516 15.465C55.9752 15.4687 55.1621 14.605 55.1448 13.2247C55.1275 11.8494 55.9356 10.9486 57.1948 10.9424C58.4799 10.9362 59.2806 11.7851 59.2979 13.1728H59.2967ZM58.7443 13.2136C58.7468 12.12 58.1784 11.4528 57.238 11.4416C56.2804 11.4305 55.6947 12.0879 55.6972 13.1716C55.6996 14.2343 56.3039 14.9547 57.2096 14.972C58.1191 14.9893 58.7419 14.275 58.7443 13.2136Z" fill="white"/>
<path d="M116.575 41.0972C116.566 39.6849 117.337 38.7964 118.59 38.7766C119.824 38.7581 120.698 39.675 120.727 41.0194C120.757 42.3527 119.902 43.3165 118.671 43.3363C117.406 43.3573 116.584 42.4787 116.574 41.096L116.575 41.0972ZM120.174 41.0738C120.182 40.0333 119.552 39.2944 118.644 39.2808C117.725 39.2672 117.083 39.9888 117.086 41.0318C117.089 42.066 117.73 42.8223 118.614 42.8396C119.503 42.8569 120.165 42.1068 120.174 41.075V41.0738Z" fill="white"/>
<path d="M156.215 31.7925C156.206 33.174 155.384 34.0575 154.12 34.0427C152.872 34.0279 152.044 33.1048 152.059 31.7456C152.075 30.374 152.916 29.4707 154.162 29.4855C155.405 29.5016 156.222 30.4197 156.214 31.7925H156.215ZM155.691 31.7963C155.698 30.7546 155.072 30.0095 154.17 29.986C153.263 29.9625 152.589 30.7027 152.582 31.7295C152.575 32.7415 153.237 33.5237 154.118 33.5423C155.029 33.562 155.684 32.8342 155.691 31.795V31.7963Z" fill="white"/>
<path d="M124.668 31.759C124.679 33.1368 123.867 34.0351 122.606 34.0413C121.343 34.0475 120.525 33.164 120.515 31.7825C120.504 30.4121 121.334 29.4878 122.577 29.4854C123.826 29.4841 124.658 30.3874 124.669 31.759H124.668ZM124.114 31.7565C124.111 30.7013 123.484 29.9809 122.576 29.9883C121.655 29.9957 121.057 30.7037 121.067 31.7751C121.077 32.8279 121.705 33.547 122.608 33.5433C123.524 33.5396 124.118 32.834 124.114 31.7565Z" fill="white"/>
<path d="M157.731 29.2688C157.848 29.4665 157.966 29.6655 158.11 29.9089C158.273 29.8422 158.637 29.6197 159.028 29.5444C160.15 29.3281 160.797 29.8508 160.837 30.9864C160.868 31.8415 160.855 32.6991 160.837 33.5554C160.835 33.6827 160.703 33.8062 160.63 33.9323C160.527 33.8075 160.342 33.6851 160.337 33.5554C160.309 32.8103 160.325 32.0639 160.32 31.3176C160.314 30.3883 160.035 30.0139 159.336 29.983C158.579 29.9497 157.921 30.4699 157.852 31.2508C157.791 31.9366 157.848 32.6323 157.814 33.3206C157.804 33.527 157.659 33.7271 157.576 33.931C157.474 33.7444 157.287 33.5603 157.284 33.3725C157.258 32.1319 157.27 30.8913 157.27 29.6506C157.423 29.5234 157.576 29.3949 157.73 29.2676L157.731 29.2688Z" fill="white"/>
<path d="M72.3516 12.2552C72.1897 12.123 72.0439 11.9623 71.8635 11.8647C71.5385 11.688 71.1752 11.3964 70.8614 11.4335C70.4968 11.4767 69.9877 11.7486 69.8642 12.0525C69.6356 12.6111 70.1805 12.7754 70.6204 12.8866C71.048 12.9941 71.4977 13.0349 71.9117 13.1782C72.6012 13.4167 72.8434 14.0778 72.5258 14.7191C72.2354 15.3061 71.4434 15.6162 70.5648 15.4309C69.8617 15.2826 69.3019 14.944 69.166 13.869C69.5083 14.1309 69.7196 14.2236 69.8259 14.3855C70.2757 15.0713 70.9244 15.0849 71.5805 14.8662C71.8005 14.792 72.0353 14.446 72.0587 14.2038C72.076 14.0259 71.7992 13.7195 71.5892 13.6379C71.1307 13.46 70.6266 13.4019 70.1471 13.2697C69.58 13.114 69.1302 12.7149 69.2822 12.1477C69.3983 11.7164 69.7999 11.2024 70.2028 11.038C71.2704 10.6031 72.1737 11.0838 72.3516 12.2527V12.2552Z" fill="white"/>
<path d="M141.732 32.4181C142.039 32.6664 142.245 32.7628 142.345 32.9259C142.772 33.6266 143.414 33.6723 144.08 33.4622C144.317 33.3868 144.61 33.0643 144.625 32.8382C144.638 32.6343 144.346 32.313 144.115 32.2142C143.691 32.0325 143.209 31.9868 142.758 31.862C142.174 31.7001 141.762 31.3764 141.809 30.698C141.856 30.0134 142.274 29.6749 142.909 29.5451C144.022 29.3178 144.761 29.7107 145.053 30.8549C144.759 30.6671 144.591 30.5522 144.414 30.4509C144.138 30.2915 143.871 30.0505 143.577 30.0048C143.083 29.9294 142.518 29.9541 142.385 30.5942C142.235 31.306 142.825 31.3739 143.305 31.4925C143.68 31.5852 144.073 31.6186 144.435 31.7446C145.153 31.993 145.401 32.6912 145.044 33.3498C144.743 33.9058 143.891 34.1987 143.053 33.9948C142.353 33.8243 141.795 33.4845 141.734 32.4181H141.732Z" fill="white"/>
<path d="M145.551 41.684C145.878 41.9806 146.07 42.1103 146.206 42.2833C146.642 42.8369 147.485 43.0531 148.048 42.6762C148.247 42.5428 148.442 42.2574 148.451 42.0337C148.458 41.8619 148.204 41.5889 148.009 41.5172C147.546 41.3479 147.045 41.2873 146.568 41.1514C145.985 40.9858 145.582 40.6571 145.631 39.9763C145.678 39.33 146.057 38.9902 146.657 38.8481C147.8 38.5763 148.583 38.9779 148.872 40.1505C148.581 39.9627 148.419 39.8342 148.237 39.7465C147.858 39.5636 147.461 39.2584 147.084 39.2769C146.773 39.2917 146.323 39.6427 146.216 39.9442C146.034 40.4508 146.502 40.6324 146.936 40.7288C147.393 40.8301 147.865 40.8944 148.303 41.0538C149.002 41.3096 149.252 42.0757 148.829 42.6837C148.356 43.3645 147.625 43.4374 146.893 43.2817C146.196 43.1334 145.615 42.7961 145.551 41.6852V41.684Z" fill="white"/>
<path d="M149.19 30.7912C149.033 30.6886 148.884 30.5663 148.718 30.4872C148.339 30.308 147.947 30.0115 147.568 30.0238C147.248 30.0337 146.776 30.3488 146.665 30.6404C146.476 31.1384 146.938 31.3398 147.373 31.4387C147.804 31.5375 148.272 31.561 148.657 31.7488C148.966 31.8996 149.356 32.2307 149.387 32.515C149.428 32.8906 149.26 33.4182 148.987 33.6703C148.41 34.2029 147.656 34.1535 146.954 33.8693C146.427 33.6555 146.009 33.3181 146.063 32.4396C146.332 32.6706 146.522 32.7732 146.623 32.9326C147.061 33.6184 147.696 33.6851 148.365 33.4479C148.598 33.3663 148.881 33.0352 148.886 32.8127C148.891 32.6052 148.595 32.2962 148.363 32.1986C147.935 32.0207 147.451 31.9861 147.001 31.8526C146.459 31.6908 146.055 31.3843 146.073 30.743C146.092 30.0955 146.47 29.7334 147.058 29.5703C148.154 29.2651 148.956 29.6494 149.19 30.7912Z" fill="white"/>
<path d="M72.8485 43.2166C72.7608 43.0547 72.6718 42.8928 72.5631 42.6927C72.5137 42.7211 72.416 42.7594 72.3419 42.8224C71.7587 43.3266 71.1025 43.444 70.4155 43.1066C69.7803 42.794 69.6852 42.1873 69.6926 41.5484C69.7013 40.8293 69.679 40.1101 69.705 39.3922C69.7124 39.1994 69.8483 39.0116 69.9262 38.8213C70.0151 38.8423 70.1041 38.8633 70.1943 38.8855C70.1943 39.7629 70.1894 40.6402 70.1955 41.5188C70.2005 42.1774 70.3475 42.7545 71.1445 42.8335C71.8069 42.9003 72.4272 42.4221 72.5211 41.6671C72.6162 40.9034 72.5668 40.1225 72.6175 39.3514C72.6286 39.187 72.7954 39.0326 72.8905 38.8732C72.961 39.0289 73.092 39.1833 73.0944 39.339C73.1117 40.6167 73.1043 41.8944 73.1043 43.1721L72.8473 43.2154L72.8485 43.2166Z" fill="white"/>
<path d="M82.6693 15.3098C82.6693 14.4905 82.6706 13.67 82.6693 12.8508C82.6669 11.8375 82.4074 11.4433 81.7166 11.3976C80.9604 11.3482 80.282 11.9018 80.193 12.7321C80.1238 13.3883 80.172 14.0568 80.1399 14.7179C80.1288 14.9378 80.0299 15.1528 79.9706 15.3703C79.8928 15.3567 79.8149 15.3431 79.7358 15.3295V10.7822C80.0027 11.143 80.135 11.3222 80.2079 11.4235C80.6675 11.2666 81.1371 11.0059 81.6264 10.9626C82.6768 10.8687 83.1537 11.3605 83.1661 12.4195C83.176 13.2202 83.1784 14.0222 83.1599 14.8229C83.155 15.012 83.0512 15.1985 82.9918 15.3864C82.8843 15.3604 82.7768 15.3357 82.6693 15.3098Z" fill="white"/>
<path d="M146.342 20.1968C146.49 20.1684 146.594 20.1375 146.699 20.1325C146.889 20.1239 147.081 20.1301 147.338 20.1301V24.6094H146.342V20.198V20.1968Z" fill="white"/>
<path d="M55.3352 44.5605C55.3401 44.4555 55.3302 44.4135 55.3438 44.4036C56.283 43.7429 56.5276 42.8359 56.0778 41.6826C55.7479 40.8362 55.4192 39.9885 55.093 39.1408C55.0745 39.0914 55.0794 39.0321 55.2339 38.8208C55.3957 39.0012 55.6219 39.1557 55.7071 39.3682C56.0852 40.2987 56.4226 41.2464 56.8143 42.2906C57.4531 41.1043 57.6508 39.8266 58.3033 38.7812C58.4083 38.827 58.5146 38.8739 58.6196 38.9196C58.475 39.3435 58.3428 39.7723 58.1847 40.1899C57.7275 41.4009 57.2666 42.6106 56.7958 43.8166C56.4757 44.6334 56.2545 44.7409 55.3327 44.563L55.3352 44.5605Z" fill="white"/>
<path d="M84.0117 16.5833C84.3675 16.4486 84.5356 16.3855 84.7036 16.3201C85.2597 16.105 85.5649 15.3772 85.3301 14.7532C84.8742 13.5447 84.4009 12.3436 83.9351 11.1389C84.0092 11.0833 84.0833 11.0276 84.1587 10.972C84.3095 11.1475 84.5183 11.2995 84.5999 11.5021C84.9792 12.4462 85.324 13.4051 85.7157 14.4492C86.3187 13.2519 86.5596 11.9989 87.1911 10.9424C87.2949 10.9869 87.3987 11.0314 87.5012 11.0758C87.3777 11.4515 87.2677 11.8321 87.128 12.2028C86.6498 13.4681 86.1692 14.7334 85.6737 15.9926C85.3635 16.7822 85.0546 16.9132 84.0117 16.5845V16.5833Z" fill="white"/>
<path d="M75.326 16.6282C75.6189 16.4725 75.7449 16.3909 75.8821 16.3341C76.5395 16.0647 76.8138 15.437 76.5493 14.7252C76.0996 13.5192 75.6312 12.3194 75.1567 11.0825C75.5241 11.1138 75.8771 11.5891 76.2157 12.5084C76.4418 13.1176 76.6828 13.7206 76.9534 14.42C77.4687 13.2239 77.9407 12.1241 78.4251 11.0281C78.4362 11.0034 78.5734 11.033 78.7748 11.0454C78.5746 11.5928 78.3942 12.0982 78.2039 12.5986C77.7653 13.7614 77.334 14.9267 76.8756 16.0808C76.5975 16.7827 76.3504 16.8741 75.3248 16.627L75.326 16.6282Z" fill="white"/>
<path d="M115.214 38.8112C115.464 38.8445 115.753 38.8828 116.044 38.9211C116.062 38.9928 116.081 39.0645 116.099 39.1361C115.792 39.2313 115.483 39.3277 115.076 39.4525V43.1657C114.349 42.7134 114.675 42.0437 114.62 41.4753C114.557 40.8191 114.606 40.1531 114.606 39.4512C114.351 39.3561 114.103 39.2646 113.853 39.172C113.854 39.1102 113.855 39.0484 113.857 38.9866C114.089 38.9174 114.321 38.8482 114.552 38.7778C114.719 36.9898 114.85 36.8514 116.45 37.1677C115.464 37.4692 114.707 37.7818 115.211 38.8124L115.214 38.8112Z" fill="white"/>
<path d="M67.1643 38.7021C67.2595 38.8492 67.3559 38.9975 67.4411 39.1297C67.8464 39.0321 68.3321 38.9159 68.8164 38.7998C68.8449 38.8801 68.8733 38.9604 68.9017 39.0407C68.7905 39.1297 68.6929 39.257 68.5656 39.3002C67.514 39.6598 67.304 39.923 67.2867 41.0104C67.2756 41.7333 67.2842 42.4574 67.2842 43.3199C66.7343 42.8553 66.6046 40.0552 67.1631 38.7034L67.1643 38.7021Z" fill="white"/>
<path d="M166.891 33.9112V29.4887C167.121 29.6592 167.28 29.7778 167.452 29.9038C167.867 29.7803 168.376 29.6295 168.884 29.4775C168.923 29.5702 168.961 29.6641 169 29.7568C168.869 29.8482 168.747 30.0027 168.607 30.02C167.671 30.1386 167.388 30.775 167.347 31.5868C167.317 32.1911 167.356 32.7978 167.325 33.4021C167.315 33.5961 167.185 33.7839 167.11 33.9742C167.037 33.9532 166.964 33.9309 166.891 33.9099V33.9112Z" fill="white"/>
<path d="M122.179 38.5713C122.283 38.743 122.388 38.9148 122.531 39.1521C122.8 39.0705 123.319 38.9136 123.836 38.7554C123.877 38.8543 123.919 38.9531 123.96 39.0507C123.805 39.1422 123.661 39.288 123.497 39.3152C122.609 39.4573 122.315 40.0516 122.291 40.8486C122.272 41.4566 122.307 42.067 122.273 42.6737C122.263 42.864 122.113 43.0457 122.026 43.231C121.953 43.2076 121.882 43.1841 121.809 43.1594C121.793 42.9456 121.762 42.7306 121.76 42.5168C121.755 41.3108 121.758 40.1035 121.758 38.8975C121.898 38.7888 122.038 38.68 122.178 38.5713H122.179Z" fill="white"/>
<path d="M139.671 36.9746V43.2185C139.089 42.7823 139.086 37.4318 139.671 36.9746Z" fill="white"/>
<path d="M104.536 19.7939C104.34 19.155 104.206 18.7213 104.042 18.1875H105.347C105.611 19.4355 105.412 20.2227 104.671 20.6045C104.443 20.7219 104.126 20.6626 103.849 20.6848C103.995 20.4784 104.133 20.2671 104.289 20.0682C104.404 19.9212 104.539 19.7914 104.536 19.7951V19.7939Z" fill="white"/>
<path d="M67.9912 10.834V15.427C67.5068 14.8895 67.4759 11.6186 67.9912 10.834Z" fill="white"/>
<path d="M74.1716 11.0414C74.1988 12.4772 74.1815 13.9119 74.1852 15.3465C74.0196 15.3366 73.8528 15.3279 73.6873 15.3181C73.7231 13.8834 73.5946 12.4414 73.7713 11.0117C73.9047 11.0216 74.0382 11.0315 74.1716 11.0414Z" fill="white"/>
<path d="M150.578 29.4883C151.187 30.0246 151.153 33.5808 150.578 33.959V29.4883Z" fill="white"/>
<path d="M140.241 34.0118V29.4102C140.472 29.635 140.647 29.7228 140.674 29.8426C140.905 30.8979 140.676 33.6671 140.241 34.0118Z" fill="white"/>
<path d="M147.404 18.3496V19.526H146.292V18.3496H147.404Z" fill="white"/>
<path d="M5.7286 7.53613H0V38.239H5.7286V7.53613Z" fill="white"/>
<path d="M14.3463 0H8.61768V46.9187H14.3463V0Z" fill="white"/>
<path d="M22.964 15.4902H17.2354V54.1114H22.964V15.4902Z" fill="white"/>
<path d="M31.5816 9.59277H25.853V43.9607H31.5816V9.59277Z" fill="white"/>
<path d="M40.1993 19.2598H34.4707V34.0533H40.1993V19.2598Z" fill="white"/>
</g>
<defs>
<clipPath id="clip0_1099_3715">
<rect width="169" height="54.1128" fill="white"/>
</clipPath>
</defs>
</svg>
