


<svg class="vertical-bars-block"  width="245" height="85" viewBox="0 0 245 85" fill="none" xmlns="http://www.w3.org/2000/svg">
<g opacity="0.3" clip-path="url(#clip0_763_2312)">
<path d="M245.001 0H241.547V85H245.001V0Z" fill="#46D1EE"/>
<path d="M239.025 0H235.652V85H239.025V0Z" fill="#46D1EE"/>
<path d="M233.055 0H229.762V85H233.055V0Z" fill="#46D1EE"/>
<path d="M227.083 0H223.871V85H227.083V0Z" fill="#46D1EE"/>
<path d="M221.11 0H217.98V85H221.11V0Z" fill="#46D1EE"/>
<path d="M215.137 0H212.086V85H215.137V0Z" fill="#46D1EE"/>
<path d="M209.168 0H206.199V85H209.168V0Z" fill="#46D1EE"/>
<path d="M203.196 0H200.309V85H203.196V0Z" fill="#46D1EE"/>
<path d="M197.222 0H194.414V85H197.222V0Z" fill="#46D1EE"/>
<path d="M191.25 0H188.523V85H191.25V0Z" fill="#46D1EE"/>
<path d="M185.277 0H182.633V85H185.277V0Z" fill="#46D1EE"/>
<path d="M179.308 0H176.742V85H179.308V0Z" fill="#46D1EE"/>
<path d="M173.331 0H170.848V85H173.331V0Z" fill="#46D1EE"/>
<path d="M167.359 0H164.957V85H167.359V0Z" fill="#46D1EE"/>
<path d="M161.389 0H159.066V85H161.389V0Z" fill="#46D1EE"/>
<path d="M155.417 0H153.176V85H155.417V0Z" fill="#46D1EE"/>
<path d="M149.444 0H147.285V85H149.444V0Z" fill="#46D1EE"/>
<path d="M143.472 0H141.395V85H143.472V0Z" fill="#46D1EE"/>
<path d="M137.498 0H135.5V85H137.498V0Z" fill="#46D1EE"/>
<path d="M131.526 0H129.609V85H131.526V0Z" fill="#46D1EE"/>
<path d="M125.554 0H123.719V85H125.554V0Z" fill="#46D1EE"/>
<path d="M119.584 0H117.828V85H119.584V0Z" fill="#46D1EE"/>
<path d="M113.608 0H111.934V85H113.608V0Z" fill="#46D1EE"/>
<path d="M107.635 0H106.043V85H107.635V0Z" fill="#46D1EE"/>
<path d="M101.665 0H100.152V85H101.665V0Z" fill="#46D1EE"/>
<path d="M95.693 0H94.2617V85H95.693V0Z" fill="#46D1EE"/>
<path d="M89.7206 0H88.3711V85H89.7206V0Z" fill="#46D1EE"/>
<path d="M83.7509 0H82.4805V85H83.7509V0Z" fill="#46D1EE"/>
<path d="M77.7785 0H76.5898V85H77.7785V0Z" fill="#46D1EE"/>
<path d="M71.8022 0H70.6953V85H71.8022V0Z" fill="#46D1EE"/>
<path d="M65.8325 0H64.8047V85H65.8325V0Z" fill="#46D1EE"/>
<path d="M59.8601 0H58.9141V85H59.8601V0Z" fill="#46D1EE"/>
<path d="M53.8877 0H53.0234V85H53.8877V0Z" fill="#46D1EE"/>
<path d="M47.9114 0H47.1289V85H47.9114V0Z" fill="#46D1EE"/>
<path d="M41.9417 0H41.2383V85H41.9417V0Z" fill="#46D1EE"/>
<path d="M35.9693 0H35.3477V85H35.9693V0Z" fill="#46D1EE"/>
<path d="M29.9968 0H29.457V85H29.9968V0Z" fill="#46D1EE"/>
<path d="M24.0272 0H23.5664V85H24.0272V0Z" fill="#46D1EE"/>
<path d="M18.0547 0H17.6758V85H18.0547V0Z" fill="#46D1EE"/>
<path d="M12.0823 0H11.7852V85H12.0823V0Z" fill="#46D1EE"/>
<path d="M6.11003 0H5.89062V85H6.11003V0Z" fill="#46D1EE"/>
<path d="M0.137129 0H0V85H0.137129V0Z" fill="#46D1EE"/>
</g>
<defs>
<clipPath id="clip0_763_2312">
<rect width="245" height="85" fill="white"/>
</clipPath>
</defs>
</svg>
