

<svg class="vertical-bars-small" preserveAspectRatio="none" fill="none"  fill="none" xmlns="http://www.w3.org/2000/svg">
<g opacity="0.3" clip-path="url(#clip0_638_5866)">
<path d="M439 0H432.811V190H439V0Z" fill="#1ADDAC"/>
<path d="M428.297 0H422.254V190H428.297V0Z" fill="#1ADDAC"/>
<path d="M417.598 0H411.697V190H417.598V0Z" fill="#1ADDAC"/>
<path d="M406.895 0H401.14V190H406.895V0Z" fill="#1ADDAC"/>
<path d="M396.191 0H390.583V190H396.191V0Z" fill="#1ADDAC"/>
<path d="M385.493 0H380.026V190H385.493V0Z" fill="#1ADDAC"/>
<path d="M374.795 0H369.475V190H374.795V0Z" fill="#1ADDAC"/>
<path d="M364.091 0H358.917V190H364.091V0Z" fill="#1ADDAC"/>
<path d="M353.393 0H348.361V190H353.393V0Z" fill="#1ADDAC"/>
<path d="M342.689 0H337.804V190H342.689V0Z" fill="#1ADDAC"/>
<path d="M331.986 0H327.247V190H331.986V0Z" fill="#1ADDAC"/>
<path d="M321.287 0H316.69V190H321.287V0Z" fill="#1ADDAC"/>
<path d="M310.584 0H306.133V190H310.584V0Z" fill="#1ADDAC"/>
<path d="M299.88 0H295.577V190H299.88V0Z" fill="#1ADDAC"/>
<path d="M289.182 0H285.02V190H289.182V0Z" fill="#1ADDAC"/>
<path d="M278.478 0H274.463V190H278.478V0Z" fill="#1ADDAC"/>
<path d="M267.78 0H263.911V190H267.78V0Z" fill="#1ADDAC"/>
<path d="M257.076 0H253.354V190H257.076V0Z" fill="#1ADDAC"/>
<path d="M246.378 0H242.797V190H246.378V0Z" fill="#1ADDAC"/>
<path d="M235.675 0H232.241V190H235.675V0Z" fill="#1ADDAC"/>
<path d="M224.971 0H221.684V190H224.971V0Z" fill="#1ADDAC"/>
<path d="M214.273 0H211.127V190H214.273V0Z" fill="#1ADDAC"/>
<path d="M203.569 0H200.57V190H203.569V0Z" fill="#1ADDAC"/>
<path d="M192.866 0H190.013V190H192.866V0Z" fill="#1ADDAC"/>
<path d="M182.168 0H179.457V190H182.168V0Z" fill="#1ADDAC"/>
<path d="M171.464 0H168.899V190H171.464V0Z" fill="#1ADDAC"/>
<path d="M160.766 0H158.348V190H160.766V0Z" fill="#1ADDAC"/>
<path d="M150.067 0H147.791V190H150.067V0Z" fill="#1ADDAC"/>
<path d="M139.364 0H137.234V190H139.364V0Z" fill="#1ADDAC"/>
<path d="M128.661 0H126.677V190H128.661V0Z" fill="#1ADDAC"/>
<path d="M117.962 0H116.12V190H117.962V0Z" fill="#1ADDAC"/>
<path d="M107.259 0H105.563V190H107.259V0Z" fill="#1ADDAC"/>
<path d="M96.5554 0H95.0068V190H96.5554V0Z" fill="#1ADDAC"/>
<path d="M85.8518 0H84.4497V190H85.8518V0Z" fill="#1ADDAC"/>
<path d="M75.1534 0H73.8931V190H75.1534V0Z" fill="#1ADDAC"/>
<path d="M64.4498 0H63.3359V190H64.4498V0Z" fill="#1ADDAC"/>
<path d="M53.7514 0H52.7842V190H53.7514V0Z" fill="#1ADDAC"/>
<path d="M43.0531 0H42.2275V190H43.0531V0Z" fill="#1ADDAC"/>
<path d="M32.3494 0H31.6704V190H32.3494V0Z" fill="#1ADDAC"/>
<path d="M21.6463 0H21.1138V190H21.6463V0Z" fill="#1ADDAC"/>
<path d="M10.9475 0H10.5566V190H10.9475V0Z" fill="#1ADDAC"/>
<path d="M0.244258 0H0V190H0.244258V0Z" fill="#1ADDAC"/>
</g>
<defs>
<!-- <clipPath id="clip0_638_5866">
<rect width="100%" height="100%" fill="white"/>
</clipPath> -->
</defs>
</svg>
