<svg width="259" height="429" viewBox="0 0 259 429" fill="none" xmlns="http://www.w3.org/2000/svg">
<g clip-path="url(#clip0_638_7277)">
<path d="M9.52607 0H9.25V429H9.52607V0Z" fill="#1ADDAC"/>
<path d="M0.138568 0H0V429H0.138568V0Z" fill="#1ADDAC"/>
<path d="M19.1225 0H18.5703V429H19.1225V0Z" fill="#1ADDAC"/>
<path d="M28.7169 0H27.8887V429H28.7169V0Z" fill="#1ADDAC"/>
<path d="M38.3113 0H37.207V429H38.3113V0Z" fill="#1ADDAC"/>
<path d="M47.9057 0H46.5254V429H47.9057V0Z" fill="#1ADDAC"/>
<path d="M57.5021 0H55.8457V429H57.5021V0Z" fill="#1ADDAC"/>
<path d="M67.0965 0H65.1641V429H67.0965V0Z" fill="#1ADDAC"/>
<path d="M76.6929 0H74.4844V429H76.6929V0Z" fill="#1ADDAC"/>
<path d="M86.2874 0H83.8027V429H86.2874V0Z" fill="#1ADDAC"/>
<path d="M95.8837 0H93.123V429H95.8837V0Z" fill="#1ADDAC"/>
<path d="M105.478 0H102.441V429H105.478V0Z" fill="#1ADDAC"/>
<path d="M115.073 0H111.76V429H115.073V0Z" fill="#1ADDAC"/>
<path d="M124.667 0H121.078V429H124.667V0Z" fill="#1ADDAC"/>
<path d="M134.263 0H130.398V429H134.263V0Z" fill="#1ADDAC"/>
<path d="M143.858 0H139.717V429H143.858V0Z" fill="#1ADDAC"/>
<path d="M153.452 0H149.035V429H153.452V0Z" fill="#1ADDAC"/>
<path d="M163.049 0H158.355V429H163.049V0Z" fill="#1ADDAC"/>
<path d="M172.645 0H167.676V429H172.645V0Z" fill="#1ADDAC"/>
<path d="M182.239 0H176.994V429H182.239V0Z" fill="#1ADDAC"/>
<path d="M191.834 0H186.312V429H191.834V0Z" fill="#1ADDAC"/>
<path d="M201.43 0H195.633V429H201.43V0Z" fill="#1ADDAC"/>
<path d="M211.025 0H204.951V429H211.025V0Z" fill="#1ADDAC"/>
<path d="M220.619 0H214.27V429H220.619V0Z" fill="#1ADDAC"/>
<path d="M230.214 0H223.588V429H230.214V0Z" fill="#1ADDAC"/>
<path d="M239.81 0H232.908V429H239.81V0Z" fill="#1ADDAC"/>
<path d="M249.404 0H242.227V429H249.404V0Z" fill="#1ADDAC"/>
<path d="M259.001 0H251.547V429H259.001V0Z" fill="#1ADDAC"/>
</g>
<defs>
<clipPath id="clip0_638_7277">
<rect width="259" height="429" fill="white"/>
</clipPath>
</defs>
</svg>
