                                    <svg width="33" height="51" viewBox="0 0 33 51" xmlns="http://www.w3.org/2000/svg">
                                        <path d="M32.8838 13.4443C32.1712 10.5576 29.1073 9.50861 26.9281 11.0892C26.8627 11.1385 26.8007 11.2019 26.7147 11.2159C26.6493 11.1174 26.6734 11.0188 26.6734 10.9273C26.6734 9.93808 26.6734 8.94888 26.6734 7.95617C26.6734 7.19227 26.5219 6.4671 26.1363 5.80529C24.983 3.8269 22.4596 3.27774 20.6144 4.60136C20.5352 4.65768 20.4698 4.75977 20.3286 4.74921C20.3286 4.46759 20.3286 4.19653 20.3286 3.92899C20.3286 3.74593 20.3286 3.55584 20.3045 3.3763C20.0773 1.73938 18.8586 0.401681 17.306 0.0813369C15.6811 -0.253088 14.0734 0.461525 13.2196 1.89779C12.8651 2.49624 12.6895 3.15101 12.6723 3.84802C12.6654 4.14724 12.6723 4.44646 12.6723 4.79497C12.5242 4.69288 12.4313 4.62952 12.3383 4.56263C10.9785 3.61568 9.2159 3.64384 7.92492 4.6612C6.88525 5.48142 6.35165 6.58678 6.3482 7.93505C6.34132 11.7299 6.3482 15.5283 6.3482 19.3231V19.6716C6.32755 19.6751 6.30345 19.6786 6.28279 19.6822C6.22771 19.6153 6.17607 19.5484 6.12099 19.4815C5.65624 18.9077 5.12952 18.4043 4.51674 17.9995C3.83854 17.5524 3.10183 17.4257 2.32035 17.6052C0.908887 17.9256 -0.00684665 19.2175 3.85588e-05 20.5834C0.0172516 23.5298 0.00692377 26.4798 0.00348116 29.4263C0.00348116 29.9367 0.031022 30.4471 0.0895463 30.9576C0.333971 32.9923 0.957083 34.8932 1.98986 36.6534C2.65085 37.7834 3.3256 38.9028 3.96592 40.0434C5.071 42.0042 5.64247 44.1198 5.64591 46.3869C5.64591 47.6049 5.64591 48.8229 5.64591 50.0409C5.64591 50.1606 5.64591 50.2803 5.66313 50.4C5.72165 50.7696 5.94542 50.9738 6.31034 50.9984C6.3964 51.002 6.47902 50.9984 6.56509 50.9984C13.798 50.9984 21.0344 50.9984 28.2673 50.9984C28.3637 50.9984 28.4601 50.9984 28.553 50.9984C28.8766 50.9773 29.0832 50.8013 29.1727 50.4845C29.2002 50.3894 29.2174 50.2944 29.2381 50.1993C29.6753 48.2069 30.1056 46.2109 30.5532 44.2219C31.1384 41.6275 31.6548 39.019 32.0404 36.3858C32.3468 34.2877 32.5774 32.1826 32.7392 30.0705C32.8873 28.1414 32.9768 26.2052 32.9871 24.2691C33.0077 21.0269 32.9974 17.7847 32.9974 14.5426C32.9974 14.173 32.9664 13.8033 32.8769 13.4443H32.8838ZM31.6514 24.6704C31.6307 26.5713 31.5343 28.4723 31.3759 30.3697C31.2623 31.725 31.1315 33.0768 30.9628 34.4215C30.7081 36.4492 30.3914 38.4628 29.9886 40.4658C29.3896 43.4334 28.7079 46.3834 28.0573 49.3404C27.9884 49.6502 27.985 49.6502 27.6614 49.6502C26.6183 49.6502 25.5752 49.6502 24.5355 49.6502C18.8242 49.6502 13.1095 49.6502 7.3982 49.6502C6.91623 49.6502 6.98509 49.6748 6.98509 49.2348C6.98509 48.3336 6.9782 47.4289 6.98509 46.5277C7.0023 43.8382 6.30345 41.3564 4.95395 39.0542C4.35149 38.0298 3.75248 37.0019 3.15002 35.9775C2.24117 34.4286 1.67315 32.7564 1.43561 30.9681C1.3702 30.4718 1.33921 29.9719 1.33921 29.472C1.33921 26.515 1.33921 23.5545 1.33921 20.5974C1.33921 19.911 1.63872 19.4041 2.22052 19.0872C2.76101 18.7915 3.30838 18.8232 3.81789 19.1823C5.07788 20.0624 5.87312 21.2698 6.20706 22.7906C6.32411 23.3151 6.33443 23.8466 6.33443 24.3782C6.33443 26.1524 6.33443 27.9231 6.33443 29.6973C6.33443 29.817 6.32066 29.9367 6.36197 30.0529C6.46181 30.3591 6.69247 30.4894 6.98509 30.5422C7.88016 30.6971 8.74082 30.9717 9.57048 31.3413C10.827 31.8975 11.9493 32.6473 12.8169 33.7491C13.5983 34.7454 14.0321 35.8824 14.1319 37.1532C14.1526 37.4032 14.1629 37.6531 14.1801 37.9031C14.2042 38.248 14.4314 38.498 14.7585 38.5332C15.1062 38.5684 15.3919 38.3748 15.478 38.0333C15.4987 37.9488 15.5124 37.8608 15.509 37.7763C15.4746 35.8754 14.9272 34.1645 13.7051 32.7071C12.7583 31.5807 11.5844 30.7745 10.2693 30.1655C9.52229 29.8205 8.7477 29.553 7.95246 29.3523C7.67361 29.2819 7.67361 29.2784 7.67361 28.9933C7.67361 27.2437 7.67361 25.4906 7.67361 23.741C7.67361 18.4853 7.67361 13.233 7.67361 7.98081C7.67361 6.88953 8.13492 6.04114 9.08163 5.52719C10.6446 4.6788 12.6206 5.88625 12.6585 7.69567C12.6585 7.8576 12.6585 8.02305 12.6585 8.18499C12.6585 14.4722 12.6585 20.7594 12.6585 27.0466C12.6585 27.1768 12.6516 27.3106 12.6723 27.4373C12.7308 27.7964 13.0303 28.0358 13.3746 28.0146C13.7154 27.9935 13.977 27.7154 13.9942 27.3493C13.9977 27.2507 13.9942 27.1522 13.9942 27.0571C13.9942 20.8227 13.9942 14.5919 13.9942 8.35748C13.9942 6.88953 13.9873 5.42158 13.9977 3.95363C14.0046 2.98907 14.4142 2.2287 15.2267 1.73234C16.8619 0.729065 18.9585 1.91539 18.9826 3.86562C19.0032 5.35469 18.986 6.84729 18.986 8.33636C18.986 10.7196 18.986 13.0993 18.986 15.4825C18.986 19.3442 18.986 23.206 18.986 27.0677C18.986 27.2085 18.9757 27.3493 19.0136 27.4901C19.1031 27.8351 19.3819 28.0463 19.7193 28.0182C20.0567 27.99 20.2976 27.7295 20.3183 27.3704C20.3252 27.2613 20.3183 27.1522 20.3183 27.043C20.3183 20.689 20.3183 14.3384 20.3183 7.98433C20.3183 7.23451 20.5145 6.55862 21.0447 6.02706C21.7745 5.29485 22.6524 5.05547 23.6266 5.39694C24.594 5.7384 25.1517 6.46006 25.3032 7.50557C25.3307 7.68863 25.3376 7.87168 25.3376 8.05826C25.3376 14.3877 25.3376 20.7206 25.3376 27.0501C25.3376 27.1698 25.3342 27.2895 25.3445 27.4091C25.3755 27.7471 25.6234 27.9935 25.947 28.0182C26.2843 28.0428 26.5701 27.8245 26.6424 27.4796C26.6733 27.3282 26.6665 27.1768 26.6665 27.0254C26.6665 22.9912 26.6665 18.9535 26.6665 14.9193C26.6665 14.6904 26.6837 14.4616 26.6734 14.2328C26.6355 13.2682 27.355 12.103 28.5806 11.8038C29.6409 11.5433 30.7253 12.0291 31.2933 13.0394C31.5378 13.4724 31.6582 13.9406 31.6617 14.4405C31.6686 15.0495 31.6617 15.6585 31.6617 16.2675C31.6582 19.0732 31.672 21.8788 31.6445 24.688L31.6514 24.6704Z" fill="currentColor"></path>
                                    </svg>